<svg width="1620" height="455" viewBox="0 0 1620 455" fill="none" xmlns="http://www.w3.org/2000/svg">
<path d="M1494.21 454.96C1580.96 454.96 1620 421.919 1620 347.686C1620 290.806 1591.27 261.001 1525.67 251.253L1474.15 243.661C1449.22 239.866 1442.71 232.288 1442.71 213.87C1442.71 191.11 1448.14 175.408 1486.08 175.408C1512.65 175.954 1530.54 184.078 1534.88 205.2H1614.03C1601.55 134.776 1571.74 113.641 1483.91 113.641C1400.96 113.641 1363.55 146.149 1363.55 218.198C1363.55 273.999 1391.2 303.258 1454.63 312.461L1506.14 320.052C1531.08 323.847 1540.85 333.596 1540.85 353.639C1540.85 383.977 1528.92 393.193 1494.23 393.193C1463.87 393.193 1448.69 387.24 1440.01 363.401H1359.76C1370.06 443.587 1425.36 454.96 1494.23 454.96H1494.21Z" fill="#3A52FD"/>
<path d="M1180.29 449.54H1262.16V184.078H1348.37V119.061H1262.16V104.438C1262.16 71.9299 1269.76 65.9769 1297.4 65.9769H1372.77V0.959961H1296.32C1207.41 0.959961 1180.3 32.9224 1180.3 108.767V449.54H1180.29Z" fill="#3A52FD"/>
<path d="M1142.35 309.77V263.718C1142.35 159.693 1097.35 113.108 999.221 113.108C901.088 113.108 855.547 159.693 855.547 263.718V304.35C855.547 408.375 901.088 454.96 999.221 454.96C1080.55 454.96 1124.46 428.95 1135.84 363.947H1054.52C1045.84 386.707 1033.37 393.206 999.221 393.206C954.226 393.206 937.42 375.333 937.42 323.861V309.77H1142.35ZM937.406 244.207C937.406 193.281 954.213 175.408 999.207 175.408C1044.2 175.408 1060.47 193.281 1060.47 244.207V251.799H937.406V244.207Z" fill="#3A52FD"/>
<path d="M652.219 449.54H734.092V184.078H848.484V119.061H652.219V449.54Z" fill="#3A52FD"/>
<path d="M603.973 184.078H522.101V449.539H603.973V184.078Z" fill="#3A52FD"/>
<path d="M330.714 449.54H412.587V184.078L522.101 184.078L522.101 119.061H412.587V0.959961H330.714V449.54Z" fill="#3A52FD"/>
<path d="M30.8937 119.061V184.078H200.596V251.799H106.262C38.4905 251.799 0 288.103 0 353.106C0 418.11 38.4905 454.96 106.262 454.96H111.14C148.551 454.96 177.832 441.416 200.596 419.202V449.54H282.468V119.061H30.8937ZM132.278 395.363C97.5724 395.363 81.859 381.819 81.859 353.106C81.859 324.393 97.5858 311.928 132.278 311.395H200.596C200.596 358.527 178.912 392.66 132.278 395.363Z" fill="#FF8B00"/>
</svg>
